<svg width="141" height="40" viewBox="0 0 141 40" fill="none" xmlns="http://www.w3.org/2000/svg">
<path d="M0.68 39.44L21.752 9.68H26.12L5 39.44H0.68ZM13.4 38.48C11.288 38.48 9.464 38.08 7.928 37.28C6.424 36.48 5.256 35.328 4.424 33.824C3.624 32.288 3.224 30.48 3.224 28.4V21.2C3.224 19.088 3.624 17.28 4.424 15.776C5.256 14.272 6.424 13.12 7.928 12.32C9.464 11.52 11.288 11.12 13.4 11.12C15.512 11.12 17.32 11.52 18.824 12.32C20.36 13.12 21.528 14.272 22.328 15.776C23.16 17.28 23.576 19.072 23.576 21.152V28.4C23.576 30.48 23.16 32.288 22.328 33.824C21.528 35.328 20.36 36.48 18.824 37.28C17.32 38.08 15.512 38.48 13.4 38.48ZM13.4 34.64C15.32 34.64 16.808 34.096 17.864 33.008C18.952 31.888 19.496 30.352 19.496 28.4V21.2C19.496 19.216 18.952 17.68 17.864 16.592C16.808 15.504 15.32 14.96 13.4 14.96C11.48 14.96 9.976 15.504 8.888 16.592C7.832 17.68 7.304 19.216 7.304 21.2V28.4C7.304 30.352 7.832 31.888 8.888 33.008C9.976 34.096 11.48 34.64 13.4 34.64ZM42.1813 38.48C40.9973 38.48 40.0373 38.128 39.3013 37.424C38.5973 36.72 38.2453 35.808 38.2453 34.688C38.2453 33.504 38.5973 32.544 39.3013 31.808C40.0373 31.072 40.9973 30.704 42.1813 30.704C43.3653 30.704 44.3093 31.072 45.0133 31.808C45.7493 32.544 46.1173 33.504 46.1173 34.688C46.1173 35.808 45.7493 36.72 45.0133 37.424C44.3093 38.128 43.3653 38.48 42.1813 38.48ZM60.6425 38V34.064H70.0025V15.536H61.6025V11.6H74.3225V34.064H83.2025V38H60.6425ZM71.6825 6.848C70.6265 6.848 69.7945 6.576 69.1865 6.032C68.5785 5.488 68.2745 4.752 68.2745 3.824C68.2745 2.864 68.5785 2.112 69.1865 1.568C69.7945 0.991999 70.6265 0.704 71.6825 0.704C72.7385 0.704 73.5705 0.991999 74.1785 1.568C74.7865 2.112 75.0905 2.864 75.0905 3.824C75.0905 4.752 74.7865 5.488 74.1785 6.032C73.5705 6.576 72.7385 6.848 71.6825 6.848ZM89.7598 38V11.6H94.0798V16.64H94.9918L94.0798 17.648C94.0798 15.568 94.7038 13.968 95.9518 12.848C97.1998 11.696 98.9278 11.12 101.136 11.12C103.792 11.12 105.904 11.936 107.472 13.568C109.04 15.2 109.824 17.424 109.824 20.24V38H105.504V21.008C105.504 18.992 104.992 17.456 103.968 16.4C102.976 15.312 101.616 14.768 99.8878 14.768C98.0958 14.768 96.6718 15.328 95.6158 16.448C94.5918 17.568 94.0798 19.152 94.0798 21.2V38H89.7598ZM118.781 38V2.96H123.101V22.496H128.141L135.533 11.6H140.477L131.981 24.176L140.957 38H135.917L128.237 26.24H123.101V38H118.781Z" fill="white"/>
</svg>
